<svg xmlns="http://www.w3.org/2000/svg" xmlns:xlink="http://www.w3.org/1999/xlink" width="68" height="68" viewBox="0 0 68 68">
  <defs>
    <clipPath id="clip-path">
      <rect id="Rectangle_49" data-name="Rectangle 49" width="54.105" height="48.667" fill="none"/>
    </clipPath>
  </defs>
  <g id="nephrology" transform="translate(-526 -279)">
    <rect id="Rectangle_48" data-name="Rectangle 48" width="68" height="68" rx="3" transform="translate(526 279)" fill="#fff"/>
    <g id="Group_29" data-name="Group 29" transform="translate(533 289)">
      <g id="Group_28" data-name="Group 28" clip-path="url(#clip-path)">
        <path id="Path_26" data-name="Path 26" d="M34.21,16.509c-.419-.393-.733-.672-1.029-.967a8.607,8.607,0,0,1-2.263-9.327A8.625,8.625,0,0,1,38.144.188a11.116,11.116,0,0,1,9.841,3.16A17.959,17.959,0,0,1,53.161,12.2a23.81,23.81,0,0,1-1.882,18c-.482.895-1.658,2.539-1.658,2.539a25.268,25.268,0,0,1-3.631,3.268A10.826,10.826,0,0,1,35.934,37a8.207,8.207,0,0,1-2.976-2.009c-.231-.238-.481-.458-.918-.872,0,.717,0,1.173,0,1.628q0,5.667,0,11.335a2.112,2.112,0,0,1-.059.919c-.142.267-.485.589-.739.588s-.566-.33-.752-.587c-.114-.158-.048-.452-.048-.685,0-6.232-.017-12.464.01-18.7a8.566,8.566,0,0,1,3.914-7.309,8.294,8.294,0,0,1,5.42-1.456c.193.013.386.021.62.033.276-.609.007-1.218.134-1.883-.356-.035-.612-.07-.869-.083a10.523,10.523,0,0,1-2.206-.133,3.656,3.656,0,0,0-2.483.265,11.769,11.769,0,0,0-4.853,3.339,10.514,10.514,0,0,0-2.267,6.841c-.032,6.232-.011,12.464-.012,18.7a8.117,8.117,0,0,1-.021.934.87.87,0,0,1-.833.8.781.781,0,0,1-.753-.757c-.023-.31-.019-.622-.019-.934,0-6.115.022-12.231-.024-18.346a16.266,16.266,0,0,0-.461-3.689,8.726,8.726,0,0,0-3.84-5.385,31.108,31.108,0,0,0-2.99-1.571,3.293,3.293,0,0,0-2.261-.221,21.23,21.23,0,0,1-2.956.215,4.763,4.763,0,0,0-.143,1.79c.995.082,1.96.094,2.9.25a8.607,8.607,0,0,1,6.923,6.6,10.76,10.76,0,0,1,.245,2.193c.02,6.115.013,12.23.014,18.346a5.318,5.318,0,0,1-.017.7.809.809,0,0,1-.864.754.771.771,0,0,1-.712-.791c-.012-.272-.008-.545-.008-.818q0-5.726,0-11.452c0-.385,0-.77,0-1.311a2.718,2.718,0,0,0-.558.366c-2.522,3.14-7.847,4.058-11.8,2.25a14.739,14.739,0,0,1-6.562-6.106A22.955,22.955,0,0,1,.042,17.417,21.237,21.237,0,0,1,4.536,5,12.846,12.846,0,0,1,11.479.323c3.842-.994,8.347.335,10.587,3.641A9.045,9.045,0,0,1,20.69,15.752l-.863.786a12.587,12.587,0,0,1,7.213,6.828c1.43-3.433,3.994-5.424,7.169-6.858m18.262,1.967c-.059-.641-.127-1.728-.265-2.806a18.887,18.887,0,0,0-3.775-9.418c-2.387-3.055-5.422-4.908-9.46-4.5a7.33,7.33,0,0,0-6.723,8.959,7.2,7.2,0,0,0,7.586,5.571,1.881,1.881,0,0,0,1.6-.961,11.964,11.964,0,0,1,1.637-1.948,1.508,1.508,0,0,1,.711-.363.732.732,0,0,1,.889.38.714.714,0,0,1-.16.947c-.227.211-.5.38-.718.6a5.074,5.074,0,0,0,.608,7.89.867.867,0,0,1,.319,1.285.822.822,0,0,1-1.245.066,5.381,5.381,0,0,1-1.44-1.336,2.564,2.564,0,0,0-2.424-1.294,13.012,13.012,0,0,0-1.5.064,7.142,7.142,0,0,0-5.977,8.015,7.692,7.692,0,0,0,9.012,6.468,11.256,11.256,0,0,0,7.46-4.785c2.719-3.665,3.779-7.874,3.863-12.828M1.56,18.948c.108,1.16.159,2.329.333,3.48A18.319,18.319,0,0,0,6.6,32.656C9.14,35.311,12.2,36.7,15.958,35.933a7.2,7.2,0,0,0,6.024-7.5,7.044,7.044,0,0,0-6.751-6.9c-1.19-.059-2.385-.041-3.152,1.247a6.178,6.178,0,0,1-1.622,1.477.739.739,0,0,1-1.13-.174.793.793,0,0,1,.178-1.142c.149-.124.32-.221.471-.345a5.014,5.014,0,0,0,0-7.908c-.15-.124-.365-.217-.436-.376a1.513,1.513,0,0,1-.175-.841.66.66,0,0,1,.823-.483,1.633,1.633,0,0,1,.822.4,8.889,8.889,0,0,1,1.578,1.847,1.959,1.959,0,0,0,1.775,1.061,7.112,7.112,0,0,0,7.326-5.146,7.279,7.279,0,0,0-3.5-8.464,8.95,8.95,0,0,0-8-.144A12.4,12.4,0,0,0,4.815,7.4,21.785,21.785,0,0,0,1.56,18.948" transform="translate(0 -0.001)"/>
        <path id="Path_27" data-name="Path 27" d="M506.742,192.167c-.547-.1-.9-.321-1-.8-.109-.514.209-.8.674-.911a3.19,3.19,0,0,0,1.924-.957c.116-.14.59-.1.829.008a.656.656,0,0,1,.353.882,1.967,1.967,0,0,1-.671.907,19.455,19.455,0,0,1-2.112.87" transform="translate(-460.041 -172.3)" fill="#ed8851"/>
        <path id="Path_28" data-name="Path 28" d="M402.036,126.247a2.566,2.566,0,0,1-2.421-1.486.817.817,0,0,1,.264-1.123.749.749,0,0,1,1.113.248,1.484,1.484,0,0,0,1.33.753c.675.023.923.312.9.811s-.334.749-.95.8c-.077.006-.155,0-.233,0" transform="translate(-363.418 -112.333)" fill="#ed8851"/>
        <path id="Path_29" data-name="Path 29" d="M471.8,330.187c-.468.019-.859-.084-.958-.624-.091-.494.133-.83.728-.971a1.9,1.9,0,0,0,1.327-.838.753.753,0,0,1,1.122-.218c.443.273.415.716.244,1.139a2.939,2.939,0,0,1-2.463,1.511" transform="translate(-428.293 -297.807)" fill="#ed8851"/>
        <path id="Path_30" data-name="Path 30" d="M438.515,44.683c-.143.6-.215,1.016-.348,1.416a.8.8,0,0,1-1.012.554.709.709,0,0,1-.544-.984,1.942,1.942,0,0,0-.1-1.669.685.685,0,0,1,.343-.98.72.72,0,0,1,1.031.22,13.194,13.194,0,0,1,.626,1.443" transform="translate(-396.993 -39.022)" fill="#ed8851"/>
        <path id="Path_31" data-name="Path 31" d="M497.254,65.926c-.035.178-.068.408-.128.63a.8.8,0,0,1-1.531,0,4.835,4.835,0,0,0-.544-1.859c-.111-.192.068-.7.275-.893a.768.768,0,0,1,1.056.093,3.073,3.073,0,0,1,.871,2.032" transform="translate(-450.302 -57.881)" fill="#ed8851"/>
        <path id="Path_32" data-name="Path 32" d="M422.731,330.559c.6,0,1.064.428.909.887a2.521,2.521,0,0,0,.046,1.556.728.728,0,0,1-.466.837.737.737,0,0,1-.931-.213,2.4,2.4,0,0,1-.055-2.79,1.778,1.778,0,0,1,.5-.277" transform="translate(-383.711 -300.699)" fill="#ed8851"/>
        <path id="Path_33" data-name="Path 33" d="M455.116,292.279a10.487,10.487,0,0,1-1.234-.649.623.623,0,0,1-.164-.922,1.4,1.4,0,0,1,.853-.453,10.734,10.734,0,0,1,1.334.129.826.826,0,0,1,.846.644.706.706,0,0,1-.418.861,9.133,9.133,0,0,1-1.217.389" transform="translate(-412.606 -264.03)" fill="#ed8851"/>
        <path id="Path_34" data-name="Path 34" d="M455,102.166c.537-.005.836.244.854.713.021.578-.734,1.146-1.5,1.129a.771.771,0,0,1-.781-.818c-.011-.561.624-1.016,1.43-1.025" transform="translate(-412.594 -92.937)" fill="#ed8851"/>
        <path id="Path_35" data-name="Path 35" d="M413.744,272.512c-.094-.02-.383,0-.525-.131a1.127,1.127,0,0,1-.4-.748c.018-.24.288-.5.507-.672.125-.1.371-.062.562-.062.676,0,1.077.277,1.107.75.033.523-.42.872-1.257.862" transform="translate(-375.533 -246.423)" fill="#ed8851"/>
        <path id="Path_36" data-name="Path 36" d="M530.656,253.786a1.12,1.12,0,0,1-.873,1.2.8.8,0,0,1-.883-.848,1.115,1.115,0,0,1,.864-1.2.83.83,0,0,1,.892.855" transform="translate(-481.123 -230.082)" fill="#ed8851"/>
        <path id="Path_37" data-name="Path 37" d="M385.522,310.571a1.308,1.308,0,0,1-1.072,1.2.823.823,0,0,1-.775-.851,1.3,1.3,0,0,1,1.088-1.184.745.745,0,0,1,.759.832" transform="translate(-349.017 -281.76)" fill="#ed8851"/>
        <path id="Path_38" data-name="Path 38" d="M520.693,145.158a.847.847,0,0,1-.82.813,1.211,1.211,0,0,1-1.178-1.062.788.788,0,0,1,.872-.733,1.18,1.18,0,0,1,1.125.983" transform="translate(-471.84 -131.15)" fill="#ed8851"/>
        <path id="Path_39" data-name="Path 39" d="M388.59,74.834a.853.853,0,0,1-.791.827,1.2,1.2,0,0,1-1.2-.888.784.784,0,0,1,.85-.857,1.105,1.105,0,0,1,1.138.919" transform="translate(-351.675 -67.238)" fill="#ed8851"/>
        <path id="Path_40" data-name="Path 40" d="M159.416,127.259a2.353,2.353,0,0,1-.552-.077.736.736,0,0,1-.532-.805c.022-.4.239-.73.624-.71a1.882,1.882,0,0,0,1.75-.905c.131-.18.651-.208.93-.117.436.143.467.577.362.985a2.557,2.557,0,0,1-2.584,1.629" transform="translate(-144.029 -113.339)" fill="#ed8851"/>
        <path id="Path_41" data-name="Path 41" d="M53.4,191.19a3.389,3.389,0,0,1-2.518-1.26A.847.847,0,0,1,51,188.692c.309-.252.7-.324.936-.006a2.712,2.712,0,0,0,1.819.9c.479.1.788.328.747.857-.037.481-.4.746-1.1.746" transform="translate(-46.092 -171.45)" fill="#ed8851"/>
        <path id="Path_42" data-name="Path 42" d="M91.345,330.285a2.771,2.771,0,0,1-2.359-1.475.832.832,0,0,1,.153-1.144.779.779,0,0,1,1.185.236,2,2,0,0,0,1.352.786.832.832,0,0,1,.769.862c.006.42-.452.728-1.1.733" transform="translate(-80.805 -297.901)" fill="#ed8851"/>
        <path id="Path_43" data-name="Path 43" d="M141.014,43.282c.825-.028,1.244.5.965,1.084a1.957,1.957,0,0,0-.1,1.556.758.758,0,0,1-.447,1.051.821.821,0,0,1-1.1-.56,2.758,2.758,0,0,1,.087-2.573,2.575,2.575,0,0,1,.6-.558" transform="translate(-127.406 -39.371)" fill="#ed8851"/>
        <path id="Path_44" data-name="Path 44" d="M78.531,65.871a12.8,12.8,0,0,1,.823-1.722.847.847,0,0,1,1.216-.26c.371.267.4.681.118,1.227a3.205,3.205,0,0,0-.356.94c-.134.894-.369,1.212-.947,1.142-.506-.061-.725-.45-.853-1.327" transform="translate(-71.437 -57.977)" fill="#ed8851"/>
        <path id="Path_45" data-name="Path 45" d="M158.074,332.78a9.744,9.744,0,0,1-.67,1.416.677.677,0,0,1-.927.206.71.71,0,0,1-.436-.853,2.541,2.541,0,0,0,.045-1.561c-.054-.216.259-.676.5-.771a.984.984,0,0,1,.9.233,5.583,5.583,0,0,1,.588,1.33" transform="translate(-141.913 -301.269)" fill="#ed8851"/>
        <path id="Path_46" data-name="Path 46" d="M111.975,292.255a5.538,5.538,0,0,1-1.243-.545.751.751,0,0,1,.4-1.33,4.443,4.443,0,0,0,1.573-.178c.171-.074.652.183.74.393a1.021,1.021,0,0,1-.1.93,6.6,6.6,0,0,1-1.369.73" transform="translate(-100.49 -263.976)" fill="#ed8851"/>
        <path id="Path_47" data-name="Path 47" d="M122.266,102.431a.765.765,0,0,1-.739.856c-.667.05-1.557-.583-1.551-1.1a.835.835,0,0,1,.822-.807c.649-.014,1.439.554,1.468,1.054" transform="translate(-109.138 -92.219)" fill="#ed8851"/>
        <path id="Path_48" data-name="Path 48" d="M163,272.12a1.729,1.729,0,0,1-.432-.045,1.263,1.263,0,0,1-.487-.272.67.67,0,0,1-.06-.944,1.342,1.342,0,0,1,1.488-.3,1.209,1.209,0,0,1,.547.768c.08.44-.233.705-.681.764-.115.015-.231.017-.376.028" transform="translate(-147.238 -246.02)" fill="#ed8851"/>
        <path id="Path_49" data-name="Path 49" d="M52.308,254.082a.82.82,0,0,1-.864.875,1.109,1.109,0,0,1-.887-1.184.849.849,0,0,1,.879-.871,1.067,1.067,0,0,1,.872,1.179" transform="translate(-45.99 -230.056)" fill="#ed8851"/>
        <path id="Path_50" data-name="Path 50" d="M196.655,311.023a.8.8,0,0,1-.837.779,1.311,1.311,0,0,1-1-1.259.737.737,0,0,1,.831-.76,1.245,1.245,0,0,1,1.006,1.241" transform="translate(-177.219 -281.797)" fill="#ed8851"/>
        <path id="Path_51" data-name="Path 51" d="M60.15,144.9a1.3,1.3,0,0,1-1.242,1.007.847.847,0,0,1-.75-.877,1.27,1.27,0,0,1,1.186-.933.783.783,0,0,1,.806.8" transform="translate(-52.901 -131.079)" fill="#ed8851"/>
        <path id="Path_52" data-name="Path 52" d="M192.2,74.617a1.04,1.04,0,0,1-1.11.958.8.8,0,0,1-.883-.728,1.126,1.126,0,0,1,1.128-.963.756.756,0,0,1,.865.733" transform="translate(-173.028 -67.21)" fill="#ed8851"/>
      </g>
    </g>
  </g>
</svg>
