<svg xmlns="http://www.w3.org/2000/svg" width="68" height="68" viewBox="0 0 68 68">
  <g id="plasticsurgery" transform="translate(-2676 625)">
    <rect id="Rectangle_3026" data-name="Rectangle 3026" width="68" height="68" rx="3" transform="translate(2676 -625)" fill="#eceef3" opacity="0"/>
    <g id="Group_12224" data-name="Group 12224" transform="translate(1494 -2628.002)">
      <g id="Group_11377" data-name="Group 11377" transform="translate(-12244.297 -836)">
        <path id="Path_5930" data-name="Path 5930" d="M268.228,317.387a.769.769,0,0,0-.584-.18.785.785,0,0,0-.535.306.862.862,0,0,0,.12,1.174l4.44,3.574-9.58,1.414-1.9-1.834a.757.757,0,0,0-1.1.047.848.848,0,0,0,.045,1.159l1,.933-7.48,1.111-1.67-1.614h0a.758.758,0,0,0-1.106.047.848.848,0,0,0,.045,1.158l.73.713-7.58,1.121-3.86-3.091a.753.753,0,0,0-.578-.162.772.772,0,0,0-.518.314.844.844,0,0,0,.145,1.147l2.64,2.1-4.13.607h0a.83.83,0,0,0-.74.9.816.816,0,0,0,.86.776H237l5.66-.838,3.16,2.526a.758.758,0,0,0,1.1-.152.845.845,0,0,0-.145-1.148l-1.94-1.551,7.32-1.048,2.1,2.033h0a.758.758,0,0,0,1.106-.047.846.846,0,0,0,.206-.589.836.836,0,0,0-.251-.569l-1.17-1.132,7.48-1.111,1.88,1.813h0a.757.757,0,0,0,1.1-.048.848.848,0,0,0-.045-1.158l-.94-.912,9.829-1.457,2.63,2.1h0a.772.772,0,0,0,1.12-.126.863.863,0,0,0-.12-1.173l-1.41-1.143,3.56-.524h0a.77.77,0,0,0,.554-.3.847.847,0,0,0,.166-.63.827.827,0,0,0-.328-.556.755.755,0,0,0-.612-.126l-5.07.754Z" transform="translate(13203.914 2562.743)" fill="#ed803a"/>
        <path id="Path_5931" data-name="Path 5931" d="M229.241,165.2l5.519-13.707a.852.852,0,0,0,.06-.231,2.613,2.613,0,0,0-.624-1.919,2.374,2.374,0,0,0-4.076.871l-5.08,12.365c-1.67-3.909-.83-8.52,0-13.005.93-5.03,1.8-9.777-.74-13.435h0a.757.757,0,0,0-1.09-.178.843.843,0,0,0-.17,1.142c2.14,3.091,1.33,7.493.47,12.167-1,5.24-1.94,10.6.74,15.248l-.35.849h0a17.554,17.554,0,0,0-5.54-.838,108.153,108.153,0,0,0-13.069,1.142,18.767,18.767,0,0,0,.81-9.724l7.47-13.466a3.975,3.975,0,0,0-.079-3.722,3.555,3.555,0,0,0-6.2-.123l-17,30.254c-7.92,2.379-13.47,5.564-16.619,9.441l-.23.273c-.93,1.048-3.41,3.982-2.36,6.7.94,2.431,4.34,3.825,10.38,4.254,2.34.167,5.1.251,8.1.251,16.339,0,39.9-2.463,42.489-7.441,1.59-3.06,1.3-7.493-.71-11.045h0a12.973,12.973,0,0,0-4-4.339l1.7-1.457h0a.817.817,0,0,0,.2-.325Zm-20.6-25.78a2.029,2.029,0,0,1,2.72-.838,2.155,2.155,0,0,1,1.061,1.322,2.272,2.272,0,0,1-.191,1.716l-7.64,13.759a.865.865,0,0,0-.07.661s1.2,4.265-1.16,10.291v.063c-.09.23-.17.45-.27.681-3.38,7.86-11,7.335-13.819,6.906Zm21.349,32.728c1.71,3.029,2,6.906.68,9.431-2.49,4.79-32.849,7.493-49.109,6.361-6.619-.471-8.57-2.023-9-3.238-.741-1.781,1.26-4.1,2.04-5l.27-.314c2.69-3.364,7.49-6.2,14.269-8.457l-1.8,3.2h0a.85.85,0,0,0-.066.749.79.79,0,0,0,.545.488h.25l.29.063h.13l.31.053h.13l.47.063h4.941l.51-.084h.26l.76-.167.26-.073.54-.157.3-.1.52-.189.29-.115.63-.283.17-.084c.26-.136.52-.273.77-.43l.22-.147.55-.367.26-.2.51-.419.24-.2q.33-.294.64-.618l.07-.073a8.5,8.5,0,0,0,.67-.786l.19-.251c.16-.2.31-.419.46-.639l.21-.325c.14-.22.28-.461.41-.7l.18-.314c.18-.356.36-.713.53-1.1l.14-.346h0a108.473,108.473,0,0,1,13.719-1.257,16.15,16.15,0,0,1,4.92.712l-1,2.452h0a.842.842,0,0,0,.249.973.752.752,0,0,0,.96-.019l2.54-2.2a11.376,11.376,0,0,1,3.969,4.118Zm-4.17-6.026-.45-.189,6.21-15.132h0a.856.856,0,0,1,.82-.629.88.88,0,0,1,.85.86l-5.379,13.341Z" transform="translate(13257.469 2710.198)"/>
      </g>
    </g>
  </g>
</svg>
