<svg xmlns="http://www.w3.org/2000/svg" xmlns:xlink="http://www.w3.org/1999/xlink" width="68" height="68" viewBox="0 0 68 68">
  <defs>
    <clipPath id="clip-path">
      <rect id="Rectangle_50" data-name="Rectangle 50" width="54.468" height="52.799" fill="none"/>
    </clipPath>
  </defs>
  <g id="pulmonology" transform="translate(-614 -279)">
    <rect id="Rectangle_48" data-name="Rectangle 48" width="68" height="68" rx="3" transform="translate(614 279)" fill="#fff"/>
    <g id="Group_32" data-name="Group 32" transform="translate(621 287)">
      <g id="Group_31" data-name="Group 31" clip-path="url(#clip-path)">
        <path id="Path_53" data-name="Path 53" d="M39.465,15.193a4.833,4.833,0,0,0-4.853.429,4.944,4.944,0,0,0-1.681,2.018.607.607,0,0,0-.078.135c-.013.039-.021.084-.033.124a4.956,4.956,0,0,0-.321,1.437c-.024.15-.051.3-.07.45a6.155,6.155,0,0,1-2.2-4.729V1.967A1.97,1.97,0,0,0,28.262,0H26.206a1.97,1.97,0,0,0-1.968,1.968V15.415a5.5,5.5,0,0,1-2.126,4.327c-.029.022-.059.013-.092-.01-.013-.1-.033-.2-.048-.3a4.949,4.949,0,0,0-.365-1.636c0-.007,0-.014-.006-.021s-.017-.025-.023-.04a4.961,4.961,0,0,0-1.889-2.224A4.857,4.857,0,0,0,15,15.193C3.317,20.646-1.581,31.951.445,48.793a4.562,4.562,0,0,0,6.823,3.386l9.408-5.464a10.707,10.707,0,0,0,5.313-9.23V29.271c.008-.66.039-1.411.073-2.208a3.126,3.126,0,0,1,1.691-2.177l2.613-1.257a1.994,1.994,0,0,1,1.736,0l2.613,1.257a3.127,3.127,0,0,1,1.673,2.1c.036.827.068,1.607.077,2.29a.594.594,0,0,0,.014.067v8.149a10.707,10.707,0,0,0,5.313,9.23L47.2,52.179a4.564,4.564,0,0,0,6.823-3.386c2.026-16.842-2.872-28.147-14.558-33.6M20.724,37.486a9.438,9.438,0,0,1-4.684,8.136L6.633,51.086a3.3,3.3,0,0,1-3.136.1,3.228,3.228,0,0,1-1.8-2.542c-1.981-16.467,2.545-27.033,13.837-32.3A3.578,3.578,0,0,1,17.054,16a3.631,3.631,0,0,1,1.955.576,3.7,3.7,0,0,1,1.408,1.656,8.751,8.751,0,0,1,.3,1.388c0,.029.005.058.005.088a1.293,1.293,0,0,0,.062.389,45.971,45.971,0,0,1,.025,6.611c0,.072-.006.141-.009.212a4.3,4.3,0,0,0-.078.772Zm10.539-13.74L28.65,22.49a3.25,3.25,0,0,0-2.833,0L23.2,23.747a4.334,4.334,0,0,0-1.042.706c.033-1.172,0-1.985-.029-3.083a9.4,9.4,0,0,1,.751-.627A6.774,6.774,0,0,0,25.5,15.415V1.967a.7.7,0,0,1,.7-.7h2.056a.7.7,0,0,1,.7.7v13.09A7.545,7.545,0,0,0,31.92,21a1.123,1.123,0,0,0,.392.186c-.055,1.041-.053,2.142-.022,3.248a4.335,4.335,0,0,0-1.027-.691m21.5,24.9a3.228,3.228,0,0,1-1.8,2.542,3.3,3.3,0,0,1-3.136-.1l-9.408-5.464a9.438,9.438,0,0,1-4.683-8.136s-.371-17.079.271-19.165a3.681,3.681,0,0,1,1.32-1.661,3.584,3.584,0,0,1,3.6-.321c11.291,5.269,15.818,15.836,13.837,32.3" transform="translate(0 0.001)"/>
        <path id="Path_54" data-name="Path 54" d="M112.095,408.43a4.334,4.334,0,0,1-3.155-.04,2.26,2.26,0,0,1-1.285-1.3l.064-.388c.551-3.365,1.027-6.271,4.013-7.484a.632.632,0,1,0-.475-1.171,6.226,6.226,0,0,0-2.664,2l-.009.007c-1.38,1.589-2.539,1.956-3.881,1.227a.632.632,0,1,0-.6,1.111,3.9,3.9,0,0,0,1.877.514,3.486,3.486,0,0,0,1.32-.269,20.439,20.439,0,0,0-.617,2.631,5.285,5.285,0,0,0-4.916,2.689.632.632,0,0,0,1.131.566,3.916,3.916,0,0,1,3.573-2c-.527,3.218-1.079,6.54-4.138,8.353a.632.632,0,1,0,.645,1.088c2.83-1.677,3.808-4.4,4.365-7.129a3.858,3.858,0,0,0,1.1.711,4.794,4.794,0,0,0,.667.224c.009,0,.015.01.024.012a1.108,1.108,0,0,1,.687.92,1.446,1.446,0,0,1-.546,1.439.632.632,0,1,0,.733,1.03,2.69,2.69,0,0,0,1.058-2.685,2.8,2.8,0,0,0-.154-.537,4.721,4.721,0,0,0,1.736-.385.632.632,0,0,0-.549-1.139" transform="translate(-95.331 -373.091)" fill="#ed8851"/>
        <path id="Path_55" data-name="Path 55" d="M683.295,565.127h0a2.2,2.2,0,0,0-.8-3.278l-.626-.31a.15.15,0,0,1-.076-.086,2.027,2.027,0,0,0-2.76-1.179l-.364.167a3.39,3.39,0,0,1-1.382.308l-.785.007a1,1,0,0,0-.731,1.676l.418.458a1.284,1.284,0,0,1-.06,1.792l-.411.394a.726.726,0,0,0,.356,1.235l1.046.215a1.771,1.771,0,0,1,.971.563l.3.34a1.1,1.1,0,0,0,1.925-.638.953.953,0,0,1,.979-.874l.349.011a1.97,1.97,0,0,0,1.648-.8" transform="translate(-633.217 -525.032)" fill="#ed8851"/>
        <path id="Path_56" data-name="Path 56" d="M743.007,691.452h0a.956.956,0,0,0-.107,1.46l.217.211a.065.065,0,0,1,.02.045.88.88,0,0,0,.984.854l.173-.021a1.47,1.47,0,0,1,.612.056l.325.1a.435.435,0,0,0,.525-.6l-.112-.245a.557.557,0,0,1,.263-.732l.222-.108a.315.315,0,0,0,.017-.557l-.4-.228a.769.769,0,0,1-.326-.362l-.079-.181a.478.478,0,0,0-.88.008.414.414,0,0,1-.521.231l-.143-.051a.855.855,0,0,0-.787.112" transform="translate(-696.129 -647.623)" fill="#ed8851"/>
        <path id="Path_57" data-name="Path 57" d="M704.1,706.775h0a.541.541,0,0,0-.813.159l-.083.15a.037.037,0,0,1-.022.018.5.5,0,0,0-.32.665l.037.091a.833.833,0,0,1,.06.343l-.007.193a.246.246,0,0,0,.4.2l.117-.1a.315.315,0,0,1,.439.035l.092.105a.178.178,0,0,0,.307-.074l.064-.254a.435.435,0,0,1,.149-.232l.087-.07a.271.271,0,0,0-.135-.479.234.234,0,0,1-.2-.25l.006-.085a.484.484,0,0,0-.179-.413" transform="translate(-658.833 -662.423)" fill="#ed8851"/>
        <path id="Path_58" data-name="Path 58" d="M626.555,593.42h0a.571.571,0,0,0,.875-.027l.112-.142a.039.039,0,0,1,.026-.015.526.526,0,0,0,.447-.638l-.023-.1a.879.879,0,0,1,0-.368l.04-.2a.26.26,0,0,0-.387-.275l-.139.082a.333.333,0,0,1-.452-.111l-.078-.125a.188.188,0,0,0-.333.024l-.111.254a.46.46,0,0,1-.195.217l-.1.058a.286.286,0,0,0,.059.523.247.247,0,0,1,.17.3l-.021.088a.511.511,0,0,0,.116.461" transform="translate(-586.899 -554.393)" fill="#ed8851"/>
        <path id="Path_59" data-name="Path 59" d="M625.749,660.748h0a.389.389,0,0,0-.044.594l.088.086a.027.027,0,0,1,.008.018.358.358,0,0,0,.4.347l.07-.008a.6.6,0,0,1,.249.023l.132.041a.177.177,0,0,0,.213-.242l-.045-.1a.227.227,0,0,1,.107-.3l.09-.044a.128.128,0,0,0,.007-.227l-.164-.093a.312.312,0,0,1-.133-.147l-.032-.073a.194.194,0,0,0-.358,0,.168.168,0,0,1-.212.094l-.058-.021a.348.348,0,0,0-.32.046" transform="translate(-586.43 -619.167)" fill="#ed8851"/>
      </g>
    </g>
  </g>
</svg>
